<?xml version="1.0" encoding="utf-8"?>
<!-- Generator: Adobe Illustrator 16.0.4, SVG Export Plug-In . SVG Version: 6.00 Build 0)  -->
<!DOCTYPE svg PUBLIC "-//W3C//DTD SVG 1.1//EN" "http://www.w3.org/Graphics/SVG/1.1/DTD/svg11.dtd">
<svg version="1.1" id="Layer_1" xmlns="http://www.w3.org/2000/svg" xmlns:xlink="http://www.w3.org/1999/xlink" x="0px" y="0px"
	 width="100px" height="100px" viewBox="0 0 100 100" enable-background="new 0 0 100 100" xml:space="preserve">
<g>
	<path fill="none" d="M0,100C0,66.7,0,33.3,0,0c33.3,0,66.7,0,100,0c0,33.3,0,66.7,0,100C66.7,100,33.3,100,0,100z M49.9,70.1
		c-1.9-4.7-3.8-9.6-5.8-14.6c3.3-0.3,3.4-0.4,4.6,0.5c2.7,2,5.3,4,7.9,6c3.4,2.6,6.7,5.3,10.1,8c1.3-0.9,2.3-1.5,3.4-2.3
		c0-4.5,0-9,0-13.6c4.6-2.7,7-6.2,7.1-11.8c0.1-5.8-4.2-8.4-7.4-12.5c0-3.9,0-8.2,0-12.2c-2.7-1.4-4.8-0.6-6.5,0.7
		c-3.9,3-7.9,6.1-11.6,9.4c-2.4,2.1-4.9,3.2-8.1,3.1c-6-0.1-12-0.1-18,0c-6,0.1-9.6,2.8-11.6,8.4c-0.4,1.2-0.7,2.5-0.9,3.3
		c1.4,9,6.9,12.6,15,12.5c2.1,5.2,4.1,9.9,6.1,14.6c1.2,2.7,1.8,5.8,5.3,7C43.2,75.3,47.3,74.2,49.9,70.1z M84.8,42.5
		c-0.3-1.1-0.6-2.4-0.8-3.7c-0.6-4.8-3.6-8.1-7-11c-1-0.8-2.1-1-3.1,1.2c5,3.2,7.9,8.2,8,14.2c0.1,6.1-3.7,10.6-8.2,14.6
		c0.9,0.6,1.4,1.1,1.6,1c1.1-0.6,2.3-1.1,3.3-2C82.6,53.1,84.3,48.4,84.8,42.5z"/>
	<path fill-rule="evenodd" clip-rule="evenodd" d="M49.9,70.1c-2.6,4.1-6.7,5.2-10.4,6.8c-3.4-1.2-4.1-4.3-5.3-7
		c-2.1-4.7-4-9.5-6.1-14.6c-8.1,0.1-13.6-3.5-15-12.5c0.2-0.8,0.5-2.1,0.9-3.3c2-5.6,5.6-8.3,11.6-8.4c6-0.1,12-0.1,18,0
		c3.2,0.1,5.7-1,8.1-3.1c3.7-3.3,7.6-6.4,11.6-9.4c1.7-1.3,3.8-2.1,6.5-0.7c0,4,0,8.3,0,12.2c3.2,4.1,7.4,6.7,7.4,12.5
		c-0.1,5.6-2.4,9.1-7.1,11.8c0,4.5,0,9,0,13.6c-1.1,0.7-2,1.4-3.4,2.3c-3.4-2.7-6.7-5.4-10.1-8c-2.6-2-5.3-4-7.9-6
		c-1.3-0.9-1.3-0.9-4.6-0.5C46.1,60.5,48,65.4,49.9,70.1z M66.8,20.1c-3.5,0.9-3.8,3-3.8,5.5c0,6.7,0,13.3,0,20c0,5,0,10,0,15
		c0,2.5,0.4,4.6,3.9,5.1c0.4-2.4,1-4.6,1.1-6.8c0.1-10.7,0.1-21.3,0-32C67.9,24.7,67.2,22.5,66.8,20.1z M70.7,35.9
		c-1.3,6.4-1,11.3,1,14.2c1.3-2.5,2.5-4.8,3.6-6.8C74.2,40.4,73.7,37.8,70.7,35.9z"/>
	<path fill-rule="evenodd" clip-rule="evenodd" d="M84.8,42.5c-0.5,5.9-2.2,10.7-6.2,14.3c-0.9,0.8-2.1,1.4-3.3,2
		c-0.2,0.1-0.7-0.5-1.6-1c4.5-4,8.3-8.5,8.2-14.6c-0.1-6-3-11-8-14.2c1-2.2,2.1-2,3.1-1.2c3.4,3,6.4,6.3,7,11
		C84.2,40.1,84.6,41.4,84.8,42.5z"/>
	<path fill-rule="evenodd" clip-rule="evenodd" fill="none" d="M66.8,20.1c0.4,2.4,1.1,4.6,1.2,6.8c0.1,10.7,0.1,21.3,0,32
		c0,2.3-0.7,4.5-1.1,6.8c-3.5-0.5-3.9-2.6-3.9-5.1c0-5,0-10,0-15c0-6.7,0-13.3,0-20C62.9,23.2,63.3,21,66.8,20.1z"/>
	<path fill-rule="evenodd" clip-rule="evenodd" fill="none" d="M70.7,35.9c3,1.8,3.5,4.5,4.5,7.4c-1.1,2-2.2,4.3-3.6,6.8
		C69.7,47.2,69.4,42.3,70.7,35.9z"/>
</g>
</svg>
